<?xml version="1.0" encoding="UTF-8" standalone="no"?>
<!-- Created with Inkscape (http://www.inkscape.org/) -->

<svg
   xmlns:dc="http://purl.org/dc/elements/1.1/"
   xmlns:cc="http://creativecommons.org/ns#"
   xmlns:rdf="http://www.w3.org/1999/02/22-rdf-syntax-ns#"
   xmlns:svg="http://www.w3.org/2000/svg"
   xmlns="http://www.w3.org/2000/svg"
   xmlns:sodipodi="http://sodipodi.sourceforge.net/DTD/sodipodi-0.dtd"
   xmlns:inkscape="http://www.inkscape.org/namespaces/inkscape"
   width="1052.3622"
   height="744.09448"
   id="svg2"
   version="1.1"
   inkscape:version="0.48.5 r10040"
   sodipodi:docname="2016-08-22-16-57-24.svg">
  <defs
     id="defs4" />
  <sodipodi:namedview
     id="base"
     pagecolor="#ffffff"
     bordercolor="#666666"
     borderopacity="1.0"
     inkscape:pageopacity="0.0"
     inkscape:pageshadow="2"
     inkscape:zoom="0.35"
     inkscape:cx="375"
     inkscape:cy="497.14286"
     inkscape:document-units="px"
     inkscape:current-layer="layer1"
     showgrid="false"
     inkscape:window-width="1366"
     inkscape:window-height="706"
     inkscape:window-x="-8"
     inkscape:window-y="-8"
     inkscape:window-maximized="1" />
  <metadata
     id="metadata7">
    <rdf:RDF>
      <cc:Work
         rdf:about="">
        <dc:format>image/svg+xml</dc:format>
        <dc:type
           rdf:resource="http://purl.org/dc/dcmitype/StillImage" />
        <dc:title></dc:title>
      </cc:Work>
    </rdf:RDF>
  </metadata>
  <g
     inkscape:label="Layer 1"
     inkscape:groupmode="layer"
     id="layer1"
     transform="translate(0,-308.2677)">
    <path
       style="fill:#000000"
       d="m 666.64732,549.26324 c -0.6844,0 -23.11743,22.95274 -22.9375,23.46875 0.22029,0.63167 15.59145,16.24565 50.625,51.46875 18.46854,18.5684 24.16055,24.58082 23.8125,25.1875 -0.25162,0.43852 -16.95411,17.46195 -37.09375,37.8125 -20.13963,20.35056 -36.81195,37.34455 -37.0625,37.78125 -0.34367,0.5989 2.34109,3.6196 10.9375,12.25 6.26875,6.2935 11.55536,11.4375 11.75,11.4375 0.19458,0 20.31753,-20.17549 44.71875,-44.8125 29.25371,-29.53635 44.79274,-45.58664 45.625,-47.15625 1.06886,-2.0159 1.27547,-3.16816 1.28125,-7.46875 0.006,-4.26797 -0.18766,-5.46742 -1.25,-7.625 -0.95328,-1.93608 -12.19327,-13.62644 -45.6875,-47.46875 -24.42751,-24.68133 -44.54764,-44.875 -44.71875,-44.875 z m -205.65625,41 c -14.0874,0.005 -23.08474,0.0164 -23.5625,0.0625 -0.95553,0.0921 -1.71875,0.38565 -1.71875,0.625 0,0.23934 5.83903,5.93517 12.96875,12.65625 7.12972,6.72108 14.80255,13.95851 17.0625,16.09375 l 4.09375,3.875 77.5625,0 c 51.51267,0 77.53125,-0.17496 77.53125,-0.53125 0,-0.56732 -4.53386,-5.01925 -22.625,-22.09375 l -11.15625,-10.5 -75.96875,-0.15625 c -20.89621,-0.0378 -40.1001,-0.0367 -54.1875,-0.0312 z m -67.03125,43.21875 -44.03125,44.34375 c -29.04974,29.27738 -44.63381,45.3862 -45.8125,47.3125 -1.71282,2.7993 -1.78125,3.13545 -1.78125,8.28125 0,4.9519 0.13117,5.56485 1.5625,8.03125 0.98911,1.7043 11.2357,12.44455 28.3125,29.65625 14.72935,14.8458 34.61,34.8696 44.15625,44.5 9.54625,9.6305 17.49116,17.53125 17.65625,17.53125 0.16509,0 5.41603,-5.17255 11.6875,-11.46875 6.27148,-6.2963 11.32507,-11.6936 11.21875,-12 -0.20818,-0.5999 -16.23884,-16.8858 -52.21875,-53.0625 -17.22063,-17.3147 -22.56871,-22.99235 -22.21875,-23.59375 0.25338,-0.4354 17.05712,-17.54235 37.34375,-38.03125 20.28664,-20.4889 36.952,-37.5245 37.03125,-37.875 0.0793,-0.35048 -5.03222,-5.83505 -11.375,-12.15625 l -11.53125,-11.46875 z m 153.84375,40.875 c -38.61937,0.0375 -77.35484,0.25383 -78.0625,0.625 -0.64219,0.33683 -3.21968,2.56494 -5.71875,4.96875 -5.94503,5.71843 -21.86903,20.73924 -25.78125,24.3125 -1.68999,1.54357 -2.94504,3.01623 -2.78125,3.28125 0.17461,0.28252 32.37963,0.5 77.8125,0.5 l 77.46875,0 10.3125,-9.75 c 5.66256,-5.36567 13.46379,-12.73322 17.34375,-16.375 3.87996,-3.64178 6.90684,-6.83991 6.75,-7.09375 -0.22885,-0.37026 -38.72438,-0.50624 -77.34375,-0.46875 z m -34.59375,84.46875 c -66.66785,0 -77.5,0.096 -77.5,0.75 0,0.4182 1.15709,1.82145 2.59375,3.09375 2.29054,2.0285 12.63581,11.72725 25.1875,23.65625 2.20507,2.0957 4.71307,4.353 5.5625,5 l 1.53125,1.1875 77,-0.15625 c 56.97913,-0.1003 77.0374,-0.26845 77.1875,-0.71875 0.11151,-0.3347 -7.48641,-7.86565 -16.90625,-16.71875 l -17.125,-16.09375 -77.53125,0 z"
       id="path3062"
       inkscape:connector-curvature="0" />
  </g>
</svg>
